PathFileType	4	(X/Y/Z)	./resultDataOpenSim/trcMotMarkerGrf/sub10/qtm-03-07.trc
DataRate	CameraRate	NumFrames	NumMarkers	Units	OrigDataRate	OrigDataStartFrame	OrigNumFrames
250.000000	250.000000	11	24	m	250.000000	388	517
Frame#	Time	L.Toe.Tip			R.Toe.Tip			L.Ankle.Lat			R.Ankle.Lat			L.Ankle.Med			R.Ankle.Med			L.Heel			R.Heel			L.Knee.Lat			R.Knee.Lat			L.Knee.Med			R.Knee.Med			L.Thigh.Upper			R.Thigh.Upper			L.ASIS			R.ASIS			V.Sacral			L.Acromium			R.Acromium			C7			L.Elbow			R.Elbow			L.Wrist.Lat			R.Wrist.Lat
		X1	Y1	Z1	X2	Y2	Z2	X3	Y3	Z3	X4	Y4	Z4	X5	Y5	Z5	X6	Y6	Z6	X7	Y7	Z7	X8	Y8	Z8	X9	Y9	Z9	X10	Y10	Z10	X11	Y11	Z11	X12	Y12	Z12	X13	Y13	Z13	X14	Y14	Z14	X15	Y15	Z15	X16	Y16	Z16	X17	Y17	Z17	X18	Y18	Z18	X19	Y19	Z19	X20	Y20	Z20	X21	Y21	Z21	X22	Y22	Z22	X23	Y23	Z23	X24	Y24	Z24

388	1.548	0.61637706	0.077498398	-0.1221087	0.85064305	0.038517345	0.066464461	0.55428296	0.19998272	-0.13864029	0.70954738	0.054260107	0.10863388	0.58313076	0.20308147	-0.058824868	0.7268221	0.080228566	0.024249625	0.49222281	0.22281595	-0.087171378	0.65598094	0.030828789	0.065619497	0.82346608	0.46575882	-0.16081884	0.78173612	0.45056085	0.13415312	0.84641179	0.43196963	-0.042534267	0.77984836	0.45570566	0.0056816687	0.7200849	0.83314563	-0.18952053	0.75306434	0.86718145	0.18737142	0.7858573	0.94915543	-0.13499876	0.81486204	0.95854036	0.10659854	0.61007849	0.96554448	0.0030039874	0.7387528	1.4308532	-0.15757114	0.7240301	1.4261935	0.16456262	0.64862569	1.4510667	-0.0036453522	0.66295768	1.0972409	-0.23447361	0.62442529	1.0869724	0.20809621	0.8120731	0.90189044	-0.21793952	0.74738783	0.902291	0.31152533
389	1.552	0.63307085	0.076894519	-0.12263995	0.8506504	0.038507219	0.06649342	0.56788155	0.19761585	-0.13876809	0.70951164	0.054349655	0.10859219	0.59771761	0.20106018	-0.059204467	0.72695381	0.080290613	0.024177792	0.50524671	0.21879794	-0.087204088	0.65554988	0.030837995	0.065712145	0.83318249	0.46796529	-0.16076375	0.78249357	0.4505665	0.13442233	0.8565208	0.43427643	-0.04271501	0.78065599	0.4555746	0.0058743801	0.72781055	0.83450663	-0.18950707	0.75700515	0.86750866	0.18724916	0.79271174	0.95022187	-0.13424233	0.81932975	0.95911435	0.10719368	0.61720329	0.96629212	0.0014056556	0.7435442	1.4315365	-0.15767296	0.72928948	1.4271261	0.16444251	0.65373671	1.4518453	-0.0036368748	0.66597756	1.0986566	-0.23463646	0.63096766	1.0875954	0.20991416	0.81314573	0.90177221	-0.21957316	0.75767051	0.90436616	0.31198101
390	1.556	0.6500525	0.076261856	-0.12320087	0.8506632	0.03850273	0.06651766	0.58160968	0.19507182	-0.13891272	0.70939745	0.054473239	0.10855452	0.61207915	0.19893327	-0.059483658	0.72707701	0.080343138	0.024107611	0.51844084	0.21458069	-0.087298966	0.65528164	0.030884139	0.065718688	0.84285239	0.47010297	-0.16074125	0.78326969	0.45058239	0.13467951	0.86649573	0.43652017	-0.042918128	0.78155933	0.45542166	0.0060766786	0.73528483	0.83583087	-0.19000021	0.76090492	0.86779735	0.18713526	0.7992397	0.95123989	-0.13357271	0.82377833	0.95961825	0.10778287	0.6217731	0.96701506	0.00085296744	0.74831694	1.4321606	-0.15779331	0.73452165	1.4280069	0.16432085	0.65883304	1.4525625	-0.0036328096	0.66896191	1.0999691	-0.23486761	0.63740321	1.0880137	0.21183703	0.81421398	0.90163855	-0.22124311	0.76794222	0.90643293	0.31241085
391	1.56	0.66724085	0.075616197	-0.12378384	0.85068013	0.038499013	0.066539214	0.59545435	0.19236667	-0.13905616	0.70920622	0.05462794	0.10852316	0.62618518	0.19670441	-0.059663971	0.72716467	0.080382329	0.024052274	0.53176905	0.21018329	-0.087421372	0.65528588	0.030991585	0.065567958	0.85241143	0.4721386	-0.16079248	0.78407958	0.45060939	0.13492167	0.87633464	0.43869131	-0.043157994	0.78262592	0.4552738	0.006334681	0.7424702	0.83711794	-0.19086573	0.76475956	0.86805056	0.18702945	0.8055445	0.95221939	-0.132983	0.82821714	0.96005032	0.10836162	0.6245726	0.96771094	0.0010098005	0.75308133	1.4327172	-0.15791487	0.73972676	1.4288286	0.16420071	0.66391453	1.4532067	-0.0036352752	0.67189487	1.1011797	-0.2352203	0.64364451	1.0880435	0.21384106	0.81527503	0.90147923	-0.22293272	0.77820119	0.90848593	0.31281356
392	1.564	0.68451234	0.074956423	-0.12436849	0.85069772	0.038490426	0.066558794	0.6093957	0.18951644	-0.13917871	0.70900414	0.054790176	0.10848463	0.64016755	0.19437333	-0.059793608	0.72723834	0.080403875	0.023997174	0.54522216	0.20560648	-0.087537527	0.65551961	0.031153596	0.065291867	0.86182578	0.47406048	-0.16091824	0.78488834	0.45064455	0.13516785	0.88606294	0.4407733	-0.04344583	0.78392679	0.4551366	0.0066932606	0.7494375	0.83834844	-0.19186242	0.76856578	0.86826883	0.18692928	0.81178054	0.95314456	-0.13243954	0.83264987	0.96041326	0.1089262	0.62659536	0.96837747	0.001469048	0.75784426	1.4331976	-0.15802705	0.74490974	1.4295861	0.16408004	0.66898919	1.4537751	-0.0036460912	0.67480459	1.1023132	-0.23564766	0.64984892	1.0877591	0.21579966	0.8163368	0.90127536	-0.22459872	0.78844964	0.91052009	0.31318762
393	1.568	0.70181553	0.07427898	-0.12494876	0.85071081	0.038471637	0.066575925	0.62342943	0.18653245	-0.13927561	0.70886477	0.054934016	0.10842366	0.65408089	0.1919519	-0.05988584	0.72734107	0.080417647	0.023917308	0.55882054	0.200848	-0.087634778	0.655881	0.031350813	0.064971985	0.87110694	0.47587967	-0.16107219	0.78565675	0.45068734	0.1354333	0.89572738	0.44274834	-0.043775277	0.78538514	0.45500512	0.0071140461	0.75625284	0.83950442	-0.19282017	0.77231505	0.86844377	0.18682634	0.81797885	0.95400206	-0.13191296	0.83707675	0.96071249	0.10947457	0.62876389	0.96898798	0.0018386973	0.76260378	1.4336017	-0.15813883	0.75007594	1.4302794	0.16395502	0.67406443	1.4542621	-0.0036685794	0.67771721	1.103383	-0.23609724	0.65628221	1.0874477	0.21755936	0.8174148	0.90101877	-0.2262078	0.79869295	0.91253393	0.31353468
394	1.572	0.71916584	0.073583413	-0.12552388	0.85071714	0.038442737	0.06659073	0.63756809	0.18341947	-0.13935874	0.70880256	0.055049811	0.10833844	0.66784178	0.18945081	-0.059899143	0.7274638	0.080444563	0.023816502	0.57257294	0.19591639	-0.087710935	0.65626833	0.031561065	0.064674322	0.88027857	0.47760551	-0.16120361	0.7863927	0.45073668	0.13570472	0.90535962	0.44461223	-0.044110323	0.7867999	0.45488895	0.007478675	0.76305943	0.84058416	-0.19363	0.7760019	0.86856925	0.18671226	0.82407325	0.95479746	-0.13138545	0.8414966	0.9609508	0.11000643	0.6317759	0.9694699	0.0017829999	0.7673558	1.4339367	-0.15826408	0.75522678	1.4309111	0.16382393	0.67913731	1.4546673	-0.0037061036	0.68064225	1.1043877	-0.23654398	0.66302931	1.0873446	0.21909568	0.81851861	0.90072299	-0.22776567	0.8089301	0.91453012	0.31385664
395	1.576	0.73658809	0.072871035	-0.126089	0.85072068	0.038413742	0.066604295	0.651826	0.18018166	-0.13944059	0.70878598	0.055141659	0.10823675	0.68140145	0.18685712	-0.059800744	0.72753609	0.080494084	0.023730454	0.58647225	0.19082872	-0.087778624	0.65658114	0.031762792	0.064435571	0.88933145	0.47922277	-0.16130551	0.78713118	0.4507881	0.13595866	0.91493773	0.4463838	-0.044396234	0.78803729	0.45481326	0.0077171113	0.77015063	0.84160302	-0.19421299	0.77963312	0.86865175	0.18658679	0.83002874	0.95555274	-0.13083393	0.84590923	0.96112719	0.11052518	0.63592659	0.9697276	0.001105064	0.77210029	1.4342073	-0.1584027	0.76035861	1.4314813	0.1636884	0.68419858	1.455007	-0.0037560444	0.68358184	1.1053257	-0.2369804	0.66997328	1.0874882	0.22052331	0.81964177	0.90040286	-0.2292943	0.81915128	0.9165122	0.31415283
396	1.58	0.75408336	0.072140663	-0.12664243	0.85072902	0.038395275	0.066617604	0.66621082	0.17682745	-0.13952453	0.70878372	0.055217386	0.10812637	0.69492792	0.18414474	-0.059630612	0.72752206	0.080561594	0.023681041	0.60053366	0.18560194	-0.087880779	0.65675553	0.031945101	0.064254638	0.89823835	0.48070577	-0.16140487	0.7878886	0.45083601	0.13618931	0.92437851	0.44809015	-0.044613285	0.78914585	0.45479593	0.0078875992	0.77782481	0.84257166	-0.19454568	0.78322033	0.86870114	0.1864539	0.83594898	0.95627763	-0.13022089	0.85031528	0.96123955	0.11103458	0.64101532	0.96972124	-0.00015192248	0.77684286	1.4344132	-0.15854165	0.76546707	1.4319866	0.16355151	0.68924512	1.4553008	-0.0038106443	0.68653797	1.106199	-0.23740493	0.6769485	1.0877675	0.22198619	0.82077251	0.90005109	-0.23080375	0.82934704	0.91848082	0.31442278
397	1.584	0.77162237	0.071381334	-0.12719271	0.85075129	0.038383248	0.066628483	0.68072366	0.17336326	-0.13961206	0.70878168	0.055284174	0.1080117	0.70865857	0.18131155	-0.059444667	0.72748858	0.080646192	0.023646394	0.61481651	0.18025235	-0.088067261	0.65679921	0.032108004	0.064091973	0.90701554	0.48204232	-0.16152021	0.7886596	0.45087375	0.13640615	0.93353315	0.44973933	-0.044825213	0.79024514	0.45480993	0.0080656432	0.786029	0.84347115	-0.19471578	0.78677444	0.86871954	0.18630977	0.8419943	0.95694097	-0.12955855	0.85471371	0.96128735	0.11153375	0.64654703	0.96952118	-0.001740385	0.78159006	1.4345508	-0.1586736	0.77055316	1.4324232	0.16341506	0.69428213	1.4555533	-0.0038637139	0.68951166	1.1070085	-0.23781524	0.68382248	1.0880366	0.22358786	0.82190307	0.89965023	-0.2323029	0.83951764	0.92043213	0.3146679
398	1.588	0.78916133	0.070573786	-0.12775401	0.85080147	0.038360256	0.066628622	0.69536523	0.16978549	-0.13971027	0.7087773	0.055348279	0.10789602	0.72265132	0.17838038	-0.059247678	0.7275275	0.080748735	0.023589711	0.62938893	0.17479504	-0.088299847	0.65677308	0.032256731	0.063917712	0.9157257	0.48323685	-0.1616536	0.7894389	0.45089655	0.13661998	0.94222736	0.45131785	-0.045143103	0.79142231	0.45477051	0.0082499076	0.79416389	0.8442631	-0.194925	0.79032185	0.86870882	0.1861442	0.84808344	0.95748378	-0.12899806	0.85910086	0.96127325	0.11201959	0.65210406	0.9692608	-0.0034330413	0.78634297	1.4346169	-0.1588089	0.77562153	1.4327902	0.16327866	0.69931479	1.4557473	-0.0039158294	0.69250267	1.1077494	-0.2382073	0.69055888	1.088193	0.22535127	0.82301992	0.89920129	-0.2338131	0.84967314	0.92235997	0.31488711
